<?xml version="1.0" encoding="utf-8"?>
<!-- Generator: Adobe Illustrator 22.1.0, SVG Export Plug-In . SVG Version: 6.00 Build 0)  -->
<svg version="1.1" id="Layer_1" xmlns="http://www.w3.org/2000/svg" xmlns:xlink="http://www.w3.org/1999/xlink" x="0px" y="0px"
	 viewBox="0 0 2395.3 885.6" style="enable-background:new 0 0 2395.3 885.6;" xml:space="preserve">
<style type="text/css">
	.st0{fill:#FFFFFF;}
	.st1{fill-rule:evenodd;clip-rule:evenodd;fill:#FFFFFF;}
</style>
<path class="st0" d="M2305.4,0c12.6,0,24.9,3.2,37,9.7c12,6.5,21.4,15.8,28.1,27.8c6.7,12,10.1,24.6,10.1,37.7
	c0,13-3.3,25.4-9.9,37.3c-6.6,12-15.9,21.3-27.8,27.9c-11.9,6.6-24.4,9.9-37.4,9.9c-13,0-25.5-3.3-37.4-9.9
	c-11.9-6.6-21.2-15.9-27.9-27.9c-6.7-11.9-10-24.4-10-37.3c0-13.1,3.4-25.7,10.1-37.7c6.7-12.1,16.1-21.3,28.2-27.8
	C2280.5,3.2,2292.8,0,2305.4,0L2305.4,0z M2305.4,12.4c-10.6,0-20.9,2.7-30.8,8.1c-10,5.4-17.8,13.2-23.5,23.2
	c-5.6,10.1-8.5,20.6-8.5,31.5c0,10.8,2.8,21.2,8.3,31.1c5.5,9.9,13.3,17.7,23.3,23.2c10,5.5,20.3,8.3,31.2,8.3
	c10.8,0,21.2-2.8,31.2-8.3c10-5.5,17.7-13.3,23.2-23.2c5.5-9.9,8.3-20.3,8.3-31.1c0-10.9-2.8-21.4-8.4-31.5
	c-5.6-10-13.4-17.8-23.5-23.2C2326.2,15.2,2315.9,12.4,2305.4,12.4L2305.4,12.4z M2272.4,116.8V35.9h27.8c9.5,0,16.4,0.7,20.7,2.2
	c4.3,1.5,7.6,4.1,10.2,7.8c2.5,3.7,3.8,7.7,3.8,11.9c0,5.9-2.1,11.1-6.3,15.4c-4.2,4.4-9.8,6.8-16.8,7.4c2.9,1.2,5.2,2.6,6.9,4.3
	c3.3,3.2,7.2,8.5,12,16.1l9.9,15.8h-16l-7.2-12.8c-5.6-10-10.2-16.3-13.6-18.8c-2.4-1.9-5.9-2.8-10.5-2.8h-7.7v34.4H2272.4
	L2272.4,116.8z M2285.5,71.3h15.8c7.6,0,12.7-1.2,15.5-3.4c2.8-2.2,4.1-5.2,4.1-9c0-2.4-0.7-4.5-2-6.4c-1.3-1.9-3.2-3.3-5.5-4.2
	c-2.4-1-6.8-1.4-13.1-1.4h-14.8V71.3L2285.5,71.3z"/>
<path class="st1" d="M1365.7,13.3c31.4,0,62.8,0,94.1,0c2.6,149.9-6.9,308.7,0,465.7c1.7,39.7,3.4,107.9,32,123.3
	c30.5,16.4,74.2-4.1,113,3.9c0,33.3,0,66.5,0,99.8c-102.6,5.6-171.5,1.6-207.1-62.6c-37.3-67.4-33.9-180.8-33.9-295.5
	c0-115,0-233.3,0-328.7C1363.7,16.4,1363.5,13.6,1365.7,13.3L1365.7,13.3z"/>
<path class="st1" d="M14.6,182.4C20.3,105.9,46.3,43,106.1,23c37.6-12.6,85.1-11.9,122.4,9.8c51.3,29.8,69.1,90.8,69.7,180
	c-30.8-1.3-66.5,2.5-94.1-2c-0.2-51.7-5-99.4-49-97.8C89.4,115.4,100,264.3,100,361.7c0,79-12.3,250.6,56.9,250.3
	c45.1-0.2,46-59.2,49-101.8c30.1,1.3,65.3-2.6,92.3,2c-1.6,86-18.3,151.3-71.5,180c-42.2,22.8-102.6,21-141.2,0
	c-46.9-25.5-64.8-86.7-70.8-153V182.4L14.6,182.4z"/>
<path class="st1" d="M1700.9,455.5c0,56.7,0.3,141.3,39.5,148.7c52.5,9.9,56.6-82.3,56.5-150.7c-0.2-67-5.5-155.5-52.7-148.7
	C1699.1,311.3,1700.9,399.7,1700.9,455.5L1700.9,455.5z M1740.4,203.1c121.5-7.2,147.4,104.4,152.5,230.9
	c4.4,107.7-12,221.6-79.1,258.3c-49.4,27-120.4,15.4-154.4-17.6c-85.2-82.8-79.3-404.1,26.4-459.9
	C1699,207.9,1717.8,204.4,1740.4,203.1L1740.4,203.1z"/>
<path class="st1" d="M2019.1,459.4c0,55.3,2.5,129.6,32,142.9c16.8,7.6,46.7-1.7,64,2c0-99.8,0-199.6,0-299.4
	C2017.3,278.1,2019.1,371.7,2019.1,459.4L2019.1,459.4z M2068.2,885.6h-100V784.2c40.9-12.6,107.9,14.3,133.7-11.7
	c13.8-13.8,9.3-35.6,13.2-62.6c-46.4-3.7-90-0.6-122.4-23.5c-54.8-38.8-71.5-131.9-71.5-229c0-127.1,23-247.5,139.3-256.3
	c49.7-3.8,95.5,2.8,152.5,0c0,81,0,174,0,268.1c0,92.7,6.3,188.2,0,268.1c-2.9,37.4-14.6,86.3-35.8,109.6
	C2151.9,874.8,2113.8,883.3,2068.2,885.6L2068.2,885.6z"/>
<path class="st1" d="M542.9,218.7c0,32.6,0,65.2,0,97.8c-39.5,0.5-72.5-7.3-88.5,21.5c-22,39.5-17.3,118.5-16.9,187.9
	c0.4,75.9,0.3,133.1,1.9,180c-34.9,0.8-68.6-1.4-94.1,0C352.9,488.2,285,187.5,542.9,218.7L542.9,218.7z"/>
<path class="st1" d="M723.7,322.4c-42.6-37.4-73.2,43.5-69.7,92c31.4-1.3,67.7,2.5,96-2C743,377.4,744,340.2,723.7,322.4
	L723.7,322.4z M840.4,510.3c-62.1,0-124.3,0-186.4,0c3,50.2,13.5,113.1,67.8,99.8c22.3-5.5,29.1-32.9,33.9-60.7
	c28.2,0,56.5,0,84.7,0c7,122.4-94.2,177.9-180.7,150.7c-35-11-63.4-45.5-77.2-82.2c-40.3-107-28.6-309.2,35.8-369.9
	c35.7-33.6,119.3-39.5,161.9-3.9C836.7,291.5,843.6,401.7,840.4,510.3L840.4,510.3z"/>
<path class="st1" d="M836.6,218.7c30.8,0,61.5,0,92.3,0c22,98.5,46.6,194.2,69.7,291.6c17.3-89.6,24.4-189.9,37.7-283.7
	c30.7,0,61.5,0,92.3,0c12.8,93.7,22.8,190.2,35.8,283.7c27.7-93.2,46.2-195.9,71.5-291.6c30.1,0,60.3,0,90.4,0
	C1289.4,382,1249.4,542,1211.3,704c-30.8,0-61.5,0-92.3,0c-12.3-47.8-22.9-97.5-35.8-144.8c-15.7,45-23.6,98.1-37.7,144.8
	c-30.7,0-61.5,0-92.3,0C915.6,541.1,874,382.1,836.6,218.7L836.6,218.7z"/>
</svg>
